<svg width="512" height="512" viewBox="0 0 512 512" fill="none" xmlns="http://www.w3.org/2000/svg">
<path d="M484 256C484 381.921 381.921 484 256 484C130.079 484 28 381.921 28 256C28 130.079 130.079 28 256 28C381.921 28 484 130.079 484 256Z" fill="#9810FA"/>
<path d="M396.553 191H289.053C337.853 212.2 369.053 309.833 378.553 356C428.153 290.4 411.219 218.667 396.553 191Z" fill="white"/>
<path d="M326.553 392.5L326.553 285C305.353 333.8 207.719 365 161.553 374.5C227.153 424.1 298.886 407.167 326.553 392.5Z" fill="#57088F"/>
<path d="M115.102 319.066L222.602 319.066C173.802 297.866 142.602 200.233 133.102 154.066C83.5016 219.666 100.435 291.399 115.102 319.066Z" fill="#FFFEFE"/>
<path d="M189.553 120.102L189.553 227.602C210.753 178.802 308.386 147.602 354.553 138.102C288.953 88.5016 217.219 105.435 189.553 120.102Z" fill="#57088F"/>
<path d="M301 256C301 280.853 280.853 301 256 301C231.147 301 211 280.853 211 256C211 231.147 231.147 211 256 211C280.853 211 301 231.147 301 256Z" fill="#57088F"/>
</svg>
